<svg width="89" height="26" viewBox="0 0 89 26" fill="none" xmlns="http://www.w3.org/2000/svg">
<path d="M4.444 25V13.66L3.868 5.704L6.712 12.616L10.888 20.932H14.992L19.168 12.616L21.94 5.704L21.436 13.66V25H25.504V0.879999H20.536L15.352 11.464L12.94 17.62L10.564 11.464L5.38 0.879999H0.376V25H4.444ZM36.5973 25.36C40.4853 25.36 42.8613 23.596 44.1933 21.58L41.7093 18.988C41.0613 20.464 39.6933 22.048 36.6333 22.048C33.8613 22.048 32.0253 20.356 31.8093 17.224H44.3373C44.4093 16.864 44.4813 16.108 44.4813 15.46C44.4813 10.6 41.5653 7.108 36.3093 7.108C31.3773 7.108 27.9573 10.744 27.9573 16.252C27.9573 21.724 31.3773 25.36 36.5973 25.36ZM36.3093 10.348C38.9733 10.348 40.5573 11.86 40.8453 14.632H31.8453C32.1693 11.788 33.8253 10.348 36.3093 10.348ZM55.0642 25.36C58.9522 25.36 61.3282 23.596 62.6602 21.58L60.1762 18.988C59.5282 20.464 58.1602 22.048 55.1002 22.048C52.3282 22.048 50.4922 20.356 50.2762 17.224H62.8042C62.8762 16.864 62.9482 16.108 62.9482 15.46C62.9482 10.6 60.0322 7.108 54.7762 7.108C49.8442 7.108 46.4242 10.744 46.4242 16.252C46.4242 21.724 49.8442 25.36 55.0642 25.36ZM54.7762 10.348C57.4402 10.348 59.0242 11.86 59.3122 14.632H50.3122C50.6362 11.788 52.2922 10.348 54.7762 10.348ZM69.5058 25V0.879999H65.4738V25H69.5058ZM80.0707 25.36C85.1827 25.36 88.6387 21.688 88.6387 16.252C88.6387 10.78 85.1827 7.108 80.0707 7.108C75.0307 7.108 71.5747 10.78 71.5747 16.252C71.5747 21.688 75.0307 25.36 80.0707 25.36ZM80.1067 22.012C77.5147 22.012 75.7147 20.284 75.7147 16.252C75.7147 12.184 77.5147 10.456 80.1067 10.456C82.7347 10.456 84.5347 12.184 84.5347 16.252C84.5347 20.284 82.7347 22.012 80.1067 22.012Z" fill="#1D1D1D"/>
</svg>
